PathFileType	4	(X/Y/Z)	./resultDataOpenSim/trcMotMarkerGrf/sub06/qtm-03-01.trc
DataRate	CameraRate	NumFrames	NumMarkers	Units	OrigDataRate	OrigDataStartFrame	OrigNumFrames
250.000000	250.000000	10	24	m	250.000000	249	496
Frame#	Time	L.Toe.Tip			R.Toe.Tip			L.Ankle.Lat			R.Ankle.Lat			L.Ankle.Med			R.Ankle.Med			L.Heel			R.Heel			L.Knee.Lat			R.Knee.Lat			L.Knee.Med			R.Knee.Med			L.Thigh.Upper			R.Thigh.Upper			L.ASIS			R.ASIS			V.Sacral			L.Acromium			R.Acromium			C7			L.Elbow			R.Elbow			L.Wrist.Lat			R.Wrist.Lat
		X1	Y1	Z1	X2	Y2	Z2	X3	Y3	Z3	X4	Y4	Z4	X5	Y5	Z5	X6	Y6	Z6	X7	Y7	Z7	X8	Y8	Z8	X9	Y9	Z9	X10	Y10	Z10	X11	Y11	Z11	X12	Y12	Z12	X13	Y13	Z13	X14	Y14	Z14	X15	Y15	Z15	X16	Y16	Z16	X17	Y17	Z17	X18	Y18	Z18	X19	Y19	Z19	X20	Y20	Z20	X21	Y21	Z21	X22	Y22	Z22	X23	Y23	Z23	X24	Y24	Z24

249	0.992	0.053002818	-0.015884675	-0.020879432	0.81145495	0.14052552	0.14413016	-0.054484218	0.050923512	-0.044248786	0.67702297	0.10238186	0.15562914	-0.045885221	0.066527108	0.041920749	0.69063338	0.14023303	0.072847063	-0.13033923	0.04715628	0.0045113287	0.64580416	0.063964736	0.087582935	0.11124876	0.38526458	-0.06464891	0.51978349	0.45795419	0.17326528	0.10804429	0.38433653	0.057650484	0.50301924	0.43025867	0.04288912	0.21265624	0.75359091	-0.12690535	0.2794731	0.75883839	0.22293206	0.30654285	0.79579588	-0.10042627	0.36964623	0.80571186	0.14042271	0.1595808	0.87441148	0.063144612	0.30652082	1.2788651	-0.1477179	0.2926674	1.2707587	0.21568122	0.22434642	1.3165183	0.029167317	0.35238667	0.95428455	-0.21959215	0.12547353	1.006584	0.27302673	0.59814328	0.92896227	-0.16392401	0.16074573	0.77997834	0.34702231
250	0.996	0.053055467	-0.015886368	-0.02088601	0.81914356	0.13966675	0.14310954	-0.053366615	0.052038568	-0.044515011	0.68482366	0.10117223	0.15426843	-0.044662592	0.067590358	0.041677983	0.69841425	0.13899379	0.071619728	-0.12929553	0.049265021	0.0042137809	0.65383773	0.062627797	0.086097473	0.11596614	0.38460579	-0.06500112	0.52727537	0.45654703	0.17266053	0.11348659	0.38347589	0.057408928	0.51005138	0.42923454	0.042071398	0.21840789	0.75241098	-0.12634994	0.28858068	0.75747031	0.22300591	0.31268219	0.79471403	-0.10080482	0.37757617	0.80436876	0.13985731	0.16708874	0.87309906	0.063944099	0.31297081	1.2775569	-0.14735714	0.2993343	1.2693389	0.21615525	0.23118006	1.315233	0.029469858	0.36068591	0.95316645	-0.21909967	0.13227347	1.0051775	0.27359982	0.60633041	0.92965639	-0.16254574	0.16666597	0.77868716	0.34801836
251	1	0.05312071	-0.01588088	-0.020895879	0.82630656	0.13834506	0.14185914	-0.052166029	0.05322554	-0.044811109	0.69208364	0.099690595	0.15287416	-0.04328685	0.068761857	0.041418435	0.70559695	0.13743447	0.07034115	-0.12816149	0.051474849	0.0038799974	0.66117391	0.061044996	0.084682718	0.12080769	0.3839483	-0.065366499	0.53471723	0.45518081	0.17201463	0.11906454	0.38261357	0.057162537	0.51703156	0.42843492	0.041281724	0.224271	0.75122517	-0.12579191	0.29796719	0.75608234	0.22283547	0.31888366	0.79366946	-0.10119922	0.38550796	0.80305411	0.1392215	0.17458466	0.87180137	0.064845488	0.31944207	1.2762957	-0.14695696	0.30607452	1.2679605	0.21665014	0.23809648	1.3139405	0.029740685	0.36889798	0.9520693	-0.21849869	0.13917702	1.0037929	0.27418719	0.61443483	0.93023442	-0.16119084	0.17278891	0.77742843	0.34901443
252	1.004	0.053203656	-0.015866133	-0.02091197	0.83295412	0.13660578	0.1403477	-0.050868759	0.054475098	-0.045134322	0.69881383	0.097949246	0.15145407	-0.041730465	0.070061303	0.041143799	0.7121583	0.13557454	0.068976958	-0.12695014	0.053779824	0.003466239	0.66781348	0.05921611	0.083359966	0.12579976	0.3832892	-0.065694927	0.54211901	0.4538685	0.17129844	0.12477208	0.38171967	0.056942665	0.52401969	0.42783444	0.040564611	0.23025403	0.75004085	-0.12525431	0.30741203	0.75479646	0.22253039	0.3251421	0.79267114	-0.10159981	0.39347189	0.80179136	0.13853291	0.18207846	0.8705242	0.065819642	0.32593587	1.2750859	-0.14651719	0.31288622	1.2666291	0.21716956	0.24497936	1.312674	0.03014138	0.37702745	0.95098667	-0.21781009	0.14619466	1.0024284	0.27478699	0.62246319	0.93069733	-0.159858	0.17920672	0.77620048	0.35001653
253	1.008	0.053300274	-0.015844557	-0.020935506	0.83909956	0.13448283	0.13856802	-0.0494723	0.055785195	-0.045474492	0.70501675	0.095968591	0.15003382	-0.040030762	0.071471464	0.04083127	0.71808405	0.13340855	0.067501469	-0.12567268	0.056184594	0.0029392073	0.6737644	0.057145705	0.082138228	0.13095358	0.38262512	-0.065986025	0.54949628	0.45262025	0.17050246	0.13060446	0.38079622	0.056740835	0.53105744	0.42741623	0.039954206	0.23635823	0.74887063	-0.12476909	0.31683819	0.75370713	0.22218167	0.33146139	0.79172588	-0.10199475	0.40148305	0.8006071	0.13781148	0.18957731	0.86927268	0.066845319	0.33245812	1.2739305	-0.1460333	0.31976776	1.2653517	0.21771782	0.25175034	1.3114699	0.030782363	0.3850795	0.94994033	-0.21705719	0.15332754	1.0010926	0.27539047	0.63041229	0.9310475	-0.15855314	0.18586258	0.77499516	0.35101553
254	1.012	0.05340029	-0.01582366	-0.020966282	0.84474655	0.13200393	0.13653412	-0.04798097	0.057162147	-0.045840706	0.71069185	0.093770347	0.14864263	-0.038279949	0.072935217	0.040435687	0.72340828	0.1309464	0.06593889	-0.12430069	0.058708384	0.002320862	0.67904648	0.054841185	0.081025577	0.13628849	0.38195486	-0.066267913	0.55684902	0.45143134	0.1696435	0.13657384	0.37989352	0.056475195	0.53815303	0.42715448	0.039448468	0.24257941	0.74772909	-0.12436148	0.32640943	0.752801	0.2217786	0.33786346	0.79083311	-0.10237555	0.40953442	0.79951867	0.13707207	0.19708775	0.86805124	0.067904447	0.33901227	1.2728333	-0.14549739	0.32671721	1.264135	0.21829715	0.2584255	1.3103388	0.031639355	0.39306249	0.94895975	-0.21627841	0.16056747	0.99980231	0.27598865	0.63827065	0.93128883	-0.15728419	0.19263416	0.7738146	0.35199676
255	1.016	0.053497899	-0.015809171	-0.021004368	0.8498928	0.12919343	0.13428274	-0.046388482	0.058607931	-0.046270277	0.71585314	0.091372135	0.14729617	-0.036547411	0.074396597	0.039921364	0.72820687	0.12822519	0.064363652	-0.12277733	0.061370718	0.0016719443	0.68369207	0.052314297	0.080036322	0.1418345	0.38128232	-0.066572293	0.56415504	0.45029299	0.16876191	0.14271002	0.37907803	0.056028771	0.54531212	0.42700691	0.039022615	0.24892278	0.74662652	-0.12400915	0.3363528	0.75199345	0.22125696	0.3443715	0.78999198	-0.10274118	0.41760908	0.79853184	0.13632879	0.20461644	0.86686411	0.068979395	0.34559769	1.2718006	-0.14490294	0.33373273	1.2629832	0.21891006	0.26509845	1.3092622	0.032583044	0.40100223	0.94807484	-0.21551274	0.16790936	0.99856419	0.27658542	0.64602851	0.93142616	-0.15605198	0.19945876	0.77266579	0.35295308
256	1.02	0.053597247	-0.015800533	-0.021049923	0.85454392	0.12607045	0.13187641	-0.04466877	0.060111604	-0.046796263	0.720534	0.088789854	0.14599642	-0.034825899	0.075832821	0.039282471	0.73254691	0.12528452	0.062837752	-0.12107081	0.064167913	0.0010210893	0.68774551	0.049580467	0.079178441	0.14760755	0.38060936	-0.066919854	0.57139577	0.44920765	0.16789662	0.14902566	0.37837395	0.055357222	0.55254036	0.42692329	0.038647679	0.25540549	0.74556183	-0.12365157	0.3467481	0.75121403	0.22059365	0.35099619	0.78920268	-0.10309294	0.42569861	0.79764631	0.13559972	0.21216969	0.86571585	0.070051829	0.35221152	1.2708394	-0.14425179	0.34081192	1.261896	0.21955805	0.27184639	1.3082179	0.033509258	0.40892311	0.94730247	-0.21477576	0.17535283	0.99737427	0.2771888	0.65368346	0.93146236	-0.15484953	0.20636055	0.77155263	0.35389012
257	1.024	0.053712287	-0.015791352	-0.021103127	0.85872103	0.12265218	0.12938844	-0.042792065	0.061660289	-0.047420344	0.72477161	0.086038223	0.14473948	-0.033038939	0.077263825	0.038541648	0.73645885	0.12214767	0.061375276	-0.11918325	0.067079003	0.00035049014	0.69125925	0.046651592	0.078440941	0.15360525	0.37992959	-0.067318546	0.57859855	0.44818068	0.16705101	0.15548305	0.37773742	0.054546672	0.55981872	0.4268536	0.038298666	0.26203595	0.7445237	-0.12325498	0.35751202	0.75043496	0.21982933	0.35773744	0.78845777	-0.10342151	0.43381219	0.79686146	0.13490448	0.21975246	0.86461187	0.071101869	0.35884907	1.2699532	-0.14355457	0.34795103	1.2608716	0.22023867	0.27867782	1.3071964	0.034405215	0.41679395	0.94661627	-0.21403524	0.18289371	0.99623356	0.27779514	0.66123905	0.93139692	-0.15367097	0.21344898	0.77048379	0.35482561
258	1.028	0.053866907	-0.015769762	-0.021164425	0.86245645	0.11895695	0.12687222	-0.040741406	0.063250507	-0.04812337	0.72859642	0.083124472	0.14352253	-0.031098436	0.07873977	0.037735946	0.73994665	0.11882425	0.059965595	-0.11711492	0.070095924	-0.0003581271	0.69428683	0.043530237	0.077802204	0.15982771	0.37923392	-0.067771365	0.58583683	0.44720608	0.16620101	0.16202782	0.37708118	0.053744479	0.56707506	0.42674371	0.037970757	0.26880532	0.74350445	-0.12283022	0.36848606	0.74965369	0.21904057	0.36458107	0.78774427	-0.10370403	0.44196946	0.79617837	0.13425818	0.22736827	0.86355877	0.072107363	0.36550357	1.2691428	-0.14282199	0.35514609	1.2599122	0.220948	0.28556343	1.3061974	0.035305833	0.42452565	0.94594873	-0.21323106	0.19052303	0.99515181	0.27839554	0.66870057	0.93122855	-0.15251796	0.22085621	0.7694741	0.3557783
